<?xml version="1.0" encoding="UTF-8"?>
<svg width="32px" height="43px" viewBox="0 0 32 43" version="1.1" xmlns="http://www.w3.org/2000/svg" xmlns:xlink="http://www.w3.org/1999/xlink">
    <title>E99840B6-A63B-4FDC-B7CA-7AFC034AC61A@1.5x</title>
    <g id="01-Asiakaspysäköinti-prototyyppi" stroke="none" stroke-width="1" fill="none" fill-rule="evenodd">
        <g id="Osta-uusi_m--01---valitse-osoite" transform="translate(-186.000000, -753.000000)">
            <g id="osoite-ensisijainen-copy" transform="translate(20.000000, 468.000000)">
                <g id="osoite-ensisijainen" transform="translate(16.000000, 179.000000)">
                    <g id="icon/poi/talo-sininen" transform="translate(150.009836, 106.000000)">
                        <path d="M15.5893231,-2.13162821e-14 C11.4999245,-2.13162821e-14 7.40767519,1.55530435 4.2861057,4.66734783 C-1.95845866,10.89 -0.873243125,20.1809084 4.2861057,27.2034783 C9.44545452,34.2260481 4.2861057,27.2034783 15.5893231,42.4953913 C26.8968166,27.2034783 21.7703287,34.2492394 26.8968166,27.2034783 C32.0233045,20.1577171 33.1399556,10.89 26.8968166,4.66734783 C23.7752471,1.55530435 19.6815724,-2.13162821e-14 15.5893231,-2.13162821e-14 Z" id="Path" fill="#0072C6"></path>
                        <path d="M15.5554014,11.707118 C15.7607404,11.5713909 16.0294235,11.5713909 16.2347625,11.707118 L16.2347625,11.707118 L22.0386866,15.5593805 C22.2053489,15.6705353 22.3049794,15.8555002 22.3049794,16.0532603 L22.3049794,16.0532603 L22.3049794,22.226758 C22.3049794,22.5563457 22.0327371,22.8235294 21.6969093,22.8235294 L21.6969093,22.8235294 L18.5055897,22.8235294 C18.1697619,22.8235294 17.8975196,22.5563457 17.8975196,22.226758 L17.8975196,22.226758 L17.8975196,18.4135943 C17.8975196,18.0840065 17.6252774,17.8168228 17.2894496,17.8168228 L17.2894496,17.8168228 L14.5007144,17.8168228 C14.1648865,17.8168228 13.8926443,18.0840065 13.8926443,18.4135943 L13.8926443,18.4135943 L13.8926443,22.226758 C13.8926443,22.5563457 13.620402,22.8235294 13.2845742,22.8235294 L13.2845742,22.8235294 L10.0932547,22.8235294 C9.75742685,22.8235294 9.48518453,22.5563457 9.48518453,22.226758 L9.48518453,22.226758 L9.48518453,16.0532603 C9.48518453,15.8555002 9.58481506,15.6705353 9.75147736,15.5593805 L9.75147736,15.5593805 Z M15.5554014,8.10179533 C15.7607404,7.96606822 16.0294235,7.96606822 16.2347625,8.10179533 L16.2347625,8.10179533 L24.5674194,13.6044396 C24.7124984,13.7002317 24.808538,13.8526819 24.8310165,14.0228655 C24.8534951,14.1930491 24.8002367,14.3644932 24.6848398,14.4934232 L24.6848398,14.4934232 L23.9970916,15.2609948 C23.7954074,15.4853662 23.4556029,15.5284824 23.2024069,15.3618286 L23.2024069,15.3618286 L16.2326657,10.7666885 C16.0278043,10.6318833 15.7602629,10.6318833 15.5554014,10.7666885 L15.5554014,10.7666885 L8.58775704,15.3597707 C8.33456098,15.5264246 7.99475653,15.4833084 7.79307235,15.258937 L7.79307235,15.258937 L7.10532412,14.4913654 C6.98992725,14.3624353 6.93666888,14.1909912 6.95914739,14.0208077 C6.9816259,13.8506241 7.0776655,13.6981738 7.22274455,13.6023817 L7.22274455,13.6023817 Z" id="Combined-Shape" fill="#FFFFFF" fill-rule="nonzero"></path>
                    </g>
                </g>
            </g>
        </g>
    </g>
</svg>